# xmcd
#
# Track frame offsets: 
#        150
#        16022
#        32604
#        57726
#        75840
#        94856
#        116256
#        134340
#        154195
#        174969
#        192867
#        211021
#        232413
#
# Disc length: 3335 seconds
#
# Revision: 1
# Processed by: cddbd v1.5.2PL0 Copyright (c) Steve Scherf et al.
# Submitted via: ExactAudioCopy v1.0b2
#
DISCID=9d0d050d
DTITLE=Carabao - มนต์เพลงคาราบาว [CD 1]
DYEAR=2007
DGENRE=Songs for Life
TTITLE0=ชาย เมืองสิงห์ - รักทรหด
TTITLE1=เศรษฐา ศิระฉายา - ไม้ไผ่
TTITLE2=หงา คาราวาน - แร้งคอย
TTITLE3=สุนารี ราชสีมา - แง้มใจ
TTITLE4=บิลลี่ โอแกน - ลูกหิน
TTITLE5=ชรัส เฟื่องอารมณ์ - ลมพัดใจเพ
TTITLE6=มนต์สิทธิ์ คำสร้อย - ตุ๊กตา
TTITLE7=ฉันทนา กิติยพันธ์ and สุดา ชื่นบาน - คนล่าฝัน
TTITLE8=อุเทน พรหมมินทร์ - ขี้เมาใจดี
TTITLE9=ฟอร์ด สบชัย ไกรยูรเสน - แผ่นดิน
TTITLE10=สุรชัย สมบัติเจริญ - ผ้าขึ้ริ้ว
TTITLE11=สุภัทรา ไหมไทย - ถามหาความรัก
TTITLE12=บี เครสเซนโด้ - บัวลอย
EXTD=
EXTT0=
EXTT1=
EXTT2=
EXTT3=
EXTT4=
EXTT5=
EXTT6=
EXTT7=
EXTT8=
EXTT9=
EXTT10=
EXTT11=
EXTT12=
PLAYORDER=
